<?xml version="1.0" ?><svg data-name="014" id="_014" viewBox="0 0 128 128" xmlns="http://www.w3.org/2000/svg"><defs><style>.cls-1,.cls-5,.cls-9{opacity:0.3;}.cls-2{fill:#c9c1f5;}.cls-3{fill:#eef6ff;}.cls-13,.cls-15,.cls-4{fill:#fff;}.cls-5{fill:#5cbeff;}.cls-6{fill:#6d6daa;}.cls-7{fill:#ecf4ff;}.cls-8,.cls-9{fill:#5cbcff;}.cls-10{fill:#6d6da8;}.cls-11{fill:#919dc4;}.cls-12{fill:#4c5a7f;}.cls-12,.cls-13{opacity:0.3;}.cls-14{fill:#b1f1a8;}.cls-15{opacity:0.5;}.cls-16{fill:#2c4b75;opacity:0.2;}.cls-17{fill:#f7e0da;}.cls-18{fill:#bf8c82;}.cls-19{fill:#c7bff3;}.cls-20{fill:#1c4188;opacity:0.2;}</style></defs><title/><g class="cls-1"><path class="cls-2" d="M126.18658,45.68834A30.00062,30.00062,0,0,0,102.675,20.643,19.6899,19.6899,0,0,1,91.7423,14.09466,37.01084,37.01084,0,0,0,27.4157,29.77689a19.56747,19.56747,0,0,1-10.4271,13.1674A28.00249,28.00249,0,1,0,54.65569,80.28775a9.41321,9.41321,0,0,1,8.51571-5.29152q.43.00324.85973-.00349A12.39338,12.39338,0,0,1,76.0629,84.73021a20.0035,20.0035,0,0,0,26.05724,14.14361A19.98315,19.98315,0,0,0,115.468,80.97407a21.38393,21.38393,0,0,1,4.525-12.32395A29.90938,29.90938,0,0,0,126.18658,45.68834Z"/><path class="cls-3" d="M9.678,26.91442A7.15162,7.15162,0,0,1,23.47925,23.6249,3.816,3.816,0,0,1,29.66482,26.6c0,.10982-.00736.21781-.01655.32531A5.69384,5.69384,0,0,1,27.7569,38H11.53968A5.69423,5.69423,0,0,1,9.678,26.91442Z"/><path class="cls-4" d="M9.678,29.28966a7.15162,7.15162,0,0,1,13.80121-3.28954,3.816,3.816,0,0,1,6.18559,2.975c0,.10988-.00739.21787-.01652.32536a5.70681,5.70681,0,0,1,3.69723,4.20865,5.65724,5.65724,0,0,0-3.69723-6.58394c.00913-.10749.01652-.21548.01652-.32529a3.816,3.816,0,0,0-6.18559-2.975A7.14532,7.14532,0,0,0,9.678,26.91444,5.65837,5.65837,0,0,0,5.951,33.509,5.70739,5.70739,0,0,1,9.678,29.28966Z"/><path class="cls-5" d="M27.75689,35.62478H11.53966a5.71619,5.71619,0,0,1-5.58865-4.491A5.6422,5.6422,0,0,0,5.816,32.3,5.71188,5.71188,0,0,0,11.53966,38H27.75689a5.71189,5.71189,0,0,0,5.72375-5.7,5.64087,5.64087,0,0,0-.1351-1.16605A5.71614,5.71614,0,0,1,27.75689,35.62478Z"/><path class="cls-6" d="M27.75684,39H11.54A6.69366,6.69366,0,0,1,8.63281,26.2627c-.001-.0459-.001-.0918-.001-.1377A8.15485,8.15485,0,0,1,23.919,22.20117a4.822,4.822,0,0,1,6.73437,4.05762A6.69293,6.69293,0,0,1,27.75684,39ZM16.78613,20a6.14654,6.14654,0,0,0-6.15429,6.125,6.2746,6.2746,0,0,0,.04.68115.9995.9995,0,0,1-.66993,1.0542A4.69442,4.69442,0,0,0,11.54,37h16.2168a4.69369,4.69369,0,0,0,1.56152-9.13037,1.00063,1.00063,0,0,1-.667-1.02588c.00683-.08057.01367-.16113.01367-.24365a2.816,2.816,0,0,0-4.56543-2.19092.99961.99961,0,0,1-1.55566-.43164A6.18106,6.18106,0,0,0,16.78613,20Z"/><path class="cls-3" d="M11.53968,26.6a5.73707,5.73707,0,0,0-1.87725.31365"/><path class="cls-6" d="M9.66211,27.91406a1.0003,1.0003,0,0,1-.32617-1.9458A6.74849,6.74849,0,0,1,11.54,25.6001a1,1,0,1,1,0,2,4.74263,4.74263,0,0,0-1.55176.25879A1.00357,1.00357,0,0,1,9.66211,27.91406Z"/><path class="cls-3" d="M29.64916,26.91887A5.73666,5.73666,0,0,0,27.7569,26.6"/><path class="cls-6" d="M29.64941,27.91943a.99638.99638,0,0,1-.3291-.05615,4.73511,4.73511,0,0,0-1.56347-.26318,1,1,0,0,1,0-2,6.73441,6.73441,0,0,1,2.22168.37451,1.00032,1.00032,0,0,1-.32911,1.94482Z"/><path class="cls-3" d="M23.50435,23.60178a3.82014,3.82014,0,0,0-1.03777,1.23765"/><path class="cls-6" d="M22.46582,25.83936A.99924.99924,0,0,1,21.582,24.374a4.86641,4.86641,0,0,1,1.30762-1.56152,1,1,0,1,1,1.22851,1.57812,2.86,2.86,0,0,0-.7666.91407A.99936.99936,0,0,1,22.46582,25.83936Z"/><path class="cls-7" d="M86.04187,40.93062a7.319,7.319,0,0,1,10.88575-8.11,9.61521,9.61521,0,0,1,17.23563,4.813,6.87157,6.87157,0,0,1-2.23962,13.36894l-25.66746.0002a5.0383,5.0383,0,0,1-.2143-10.07216Z"/><path class="cls-4" d="M86.04185,43.68088a6.98905,6.98905,0,0,1-.18559-2.72421,5.01361,5.01361,0,0,0-4.43792,6.41365A5.02635,5.02635,0,0,1,86.04185,43.68088Z"/><path class="cls-4" d="M93.13141,34.503a7.28693,7.28693,0,0,1,3.79619,1.06789,9.6152,9.6152,0,0,1,17.23563,4.813,6.875,6.875,0,0,1,4.489,5.15407,6.86931,6.86931,0,0,0-4.489-7.90435,9.61523,9.61523,0,0,0-17.23563-4.813,7.32155,7.32155,0,0,0-11.129,6.26516,7.07689,7.07689,0,0,0,.14071,1.32683A7.33333,7.33333,0,0,1,93.13141,34.503Z"/><path class="cls-8" d="M86.04185,38.18032c-.04387-.16908-.06966-.34476-.10256-.518-.03519.17881-.06109.36082-.083.544C85.91932,38.20135,85.97818,38.183,86.04185,38.18032Z"/><path class="cls-9" d="M111.92365,48.2523l-25.66746.00016A5.04063,5.04063,0,0,1,81.41834,44.62a4.983,4.983,0,0,0-.20349,1.34126,5.04141,5.04141,0,0,0,5.04134,5.04145l25.66746-.00017a6.81119,6.81119,0,0,0,6.72853-8.21487A6.87619,6.87619,0,0,1,111.92365,48.2523Z"/><path class="cls-10" d="M86.25586,52.00293a6.0393,6.0393,0,0,1-1.39356-11.916,8.08659,8.08659,0,0,1-.06347-1.001,8.3213,8.3213,0,0,1,11.8789-7.53418A10.61507,10.61507,0,0,1,115.07715,36.918a7.87125,7.87125,0,0,1-3.15332,15.08447Zm6.876-19.25a6.30845,6.30845,0,0,0-6.12207,7.92627.99957.99957,0,0,1-.92579,1.25049,4.03839,4.03839,0,0,0,.17188,8.07324l25.668-.00049a5.87143,5.87143,0,0,0,1.91308-11.42334,1.00065,1.00065,0,0,1-.66894-.84326,8.61459,8.61459,0,0,0-15.44336-4.31055.99975.99975,0,0,1-1.31641.25A6.3102,6.3102,0,0,0,93.13184,32.75293Z"/><path class="cls-10" d="M113.74512,42.60645a1.00154,1.00154,0,0,1-.95117-1.30957,8.63149,8.63149,0,0,0-8.20411-11.294,1,1,0,0,1,0-2A10.6322,10.6322,0,0,1,114.69629,41.915,1.00133,1.00133,0,0,1,113.74512,42.60645Z"/><path class="cls-10" d="M89.57715,43.168a.99511.99511,0,0,1-.65918-.248,4.03408,4.03408,0,0,0-2.66211-1,1,1,0,0,1,0-2,6.03406,6.03406,0,0,1,3.98047,1.4961,1,1,0,0,1-.65918,1.75195Z"/><path class="cls-10" d="M99.09473,35.81592a.99917.99917,0,0,1-.81348-.417,6.35386,6.35386,0,0,0-5.14941-2.646,1,1,0,0,1,0-2,8.357,8.357,0,0,1,6.77441,3.48,1,1,0,0,1-.81152,1.583Z"/><path class="cls-4" d="M104,77a1.0321,1.0321,0,0,1-.71-.29A.98946.98946,0,0,1,103,76a1.39038,1.39038,0,0,1,.01953-.2002.65026.65026,0,0,1,.06055-.17968.74157.74157,0,0,1,.08984-.18067A1.61105,1.61105,0,0,1,103.29,75.29a1.04669,1.04669,0,0,1,1.41992,0A1.0321,1.0321,0,0,1,105,76a1.01024,1.01024,0,0,1-.29.71A1.03574,1.03574,0,0,1,104,77Z"/><path class="cls-4" d="M101.99805,81h-6a1,1,0,0,1,0-2h6a1,1,0,0,1,0,2Z"/><path class="cls-4" d="M99.99805,76.999h-7a1,1,0,0,1,0-2h7a1,1,0,0,1,0,2Z"/><path class="cls-4" d="M91.99707,80.999h-1.999a1,1,0,0,1,0-2h1.999a1,1,0,0,1,0,2Z"/><path class="cls-4" d="M99.99805,85h-8.001a1,1,0,0,1,0-2h8.001a1,1,0,0,1,0,2Z"/><path class="cls-4" d="M26,76.01953a.989.989,0,0,1-.37988-.06933,1.03153,1.03153,0,0,1-.32032-.22071.87163.87163,0,0,1-.21972-.31933A1.01122,1.01122,0,0,1,25,75.01953a.97657.97657,0,0,1,.2998-.70019,1.01488,1.01488,0,0,1,1.41016,0,.9711.9711,0,0,1,.29.70019.93081.93081,0,0,1-.29.71,1.03137,1.03137,0,0,1-.32031.22071A1.00487,1.00487,0,0,1,26,76.01953Z"/><path class="cls-4" d="M27.001,72.02441h-2a1,1,0,0,1,0-2h2a1,1,0,0,1,0,2Z"/><path class="cls-4" d="M30.001,68.02441H20.002a1,1,0,0,1,0-2h9.999a1,1,0,0,1,0,2Z"/><path class="cls-4" d="M21,72.02441H17.001a1,1,0,0,1,0-2H21a1,1,0,0,1,0,2Z"/><path class="cls-4" d="M22,76.02539H14a1,1,0,0,1,0-2h8a1,1,0,0,1,0,2Z"/></g><ellipse class="cls-11" cx="64" cy="117" rx="29" ry="8"/><path class="cls-12" d="M89,112.94629V113c0,1.83521-2.52563,3.50488-6.65283,4.75317A20.69268,20.69268,0,0,0,82.988,123.044C89.1178,121.57715,93,119.41431,93,117,93,115.52026,91.53979,114.135,89,112.94629Z"/><path class="cls-13" d="M53.8457,119.39624l-.023-.00269c-1.87622-.23461-3.62927-.53173-5.227-.88232l-.074-.01636q-1.06171-.23474-2.02873-.49965c-.38646-.106-1.373,3.33657-1.47469,5.05019a83.66742,83.66742,0,0,0,18.353,1.9502c.11841-1.60328-.16808-5.00029-.43545-5.00343A81.74392,81.74392,0,0,1,53.8457,119.39624Z"/><path class="cls-6" d="M64,126c-14.543,0-30-3.1543-30-9s15.457-9,30-9,30,3.1543,30,9S78.543,126,64,126Zm0-16c-17.34766,0-28,4.07715-28,7s10.65234,7,28,7,28-4.07715,28-7S81.34766,110,64,110Z"/><path class="cls-14" d="M89,104c0,3.866-11.19286,7-25,7s-25-3.134-25-7v9c0,3.866,11.19286,7,25,7s25-3.134,25-7Z"/><path class="cls-15" d="M47,109.13062v9a67.62707,67.62707,0,0,0,15,1.845v-9A67.62707,67.62707,0,0,1,47,109.13062Z"/><path class="cls-16" d="M82,108.855v9c4.33142-1.25879,7-2.969,7-4.855v-9C89,105.886,86.33142,107.59619,82,108.855Z"/><ellipse class="cls-14" cx="64" cy="104" rx="25" ry="7"/><path class="cls-6" d="M64,112c-12.60449,0-26-2.80371-26-8s13.39551-8,26-8,26,2.80371,26,8S76.60449,112,64,112Zm0-14c-14.86914,0-24,3.49414-24,6s9.13086,6,24,6,24-3.49414,24-6S78.86914,98,64,98Z"/><path class="cls-6" d="M64,121c-12.60449,0-26-2.80371-26-8v-9a1,1,0,0,1,2,0v9c0,2.50586,9.13086,6,24,6s24-3.49414,24-6v-9a1,1,0,0,1,2,0v9C90,118.19629,76.60449,121,64,121Z"/><path class="cls-17" d="M66.95685,37.76242V41.522l-.12.16c5.61939,4.79948,5.95935,10.61885,14.6584,19.05793a2.088,2.088,0,0,1,0,2.7197,5.54161,5.54161,0,0,1-3.95957,1.65982,5.63519,5.63519,0,0,1-3.09966-.9399A42.27382,42.27382,0,0,1,68.89664,59.96c.18,2.59972-.55994,17.21813-.9199,23.81741a3.40208,3.40208,0,0,1-6.79926-.18V73.47853H58.27779A4.846,4.846,0,0,1,53.53831,69.579l-.24.04h-2.7597a4.83063,4.83063,0,0,1-4.73948-3.85958H43.79937c-2.67971,0-4.21954-1.93979-4.83947-4.81947A67.48317,67.48317,0,0,1,38,47.42137a16.84968,16.84968,0,0,1,.8999-5.11944,1.49907,1.49907,0,0,1,.1-.32,24.177,24.177,0,0,1,1.89979-4.21954,6.69352,6.69352,0,0,1,1.95979-4.75948H64.99706A6.69352,6.69352,0,0,1,66.95685,37.76242Z"/><g class="cls-1"><path class="cls-18" d="M61.17753,69.479H58.27778a4.846,4.846,0,0,1-4.73947-3.89956l-.24.03995H50.53863a4.83063,4.83063,0,0,1-4.73947-3.85952H43.79938c-2.67972,0-4.21951-1.93981-4.83948-4.81955a56.2877,56.2877,0,0,1-.92471-10.19c-.01188.22385-.03515.44624-.03515.67115a67.48222,67.48222,0,0,0,.95986,13.51847c.62,2.87973,2.15976,4.81954,4.83948,4.81954h1.99978a4.83064,4.83064,0,0,0,4.73947,3.85953h2.75971l.24-.04a4.846,4.846,0,0,0,4.73947,3.89956h2.89975Z"/><path class="cls-18" d="M80.79966,60.03727a5.53916,5.53916,0,0,1-3.264,1.08256A5.63564,5.63564,0,0,1,74.436,60.18a42.27184,42.27184,0,0,1-5.53936-4.21959c.18,2.59973-.55991,17.21818-.9199,23.81739a3.40206,3.40206,0,0,1-6.79923-.17991v3.99957a3.40206,3.40206,0,0,0,6.79923.17991c.36-6.59922,1.09989-21.21766.9199-23.81739A42.27271,42.27271,0,0,0,74.436,64.17956a5.63572,5.63572,0,0,0,3.09967.93984,5.5416,5.5416,0,0,0,3.95962-1.65982,2.08794,2.08794,0,0,0,0-2.71967C81.24916,60.50108,81.03271,60.27194,80.79966,60.03727Z"/></g><path class="cls-15" d="M38.52307,58.30724c-.122-.93388-.22067-1.93325-.29808-3.02442C38.3024,56.37424,38.40123,57.37336,38.52307,58.30724Z"/><path class="cls-15" d="M38.225,55.28282c-.07754-1.09093-.13366-2.27392-.17059-3.57531C38.09133,53.0089,38.14745,54.19189,38.225,55.28282Z"/><g class="cls-1"><path class="cls-18" d="M66.88142,37.0025a6.66532,6.66532,0,0,0-1.88432-3.99956H42.85946a6.66532,6.66532,0,0,0-1.88432,3.99956l.87438,1.72c6.45832-.78177,17.26521-1.17744,23.88346,1.52176Z"/></g><path class="cls-15" d="M38.52307,58.30724c.12184.93413.26683,1.80255.43679,2.63256a10.5336,10.5336,0,0,0,.27606,1.03382,10.5336,10.5336,0,0,1-.27606-1.03382C38.79,60.10979,38.64491,59.24137,38.52307,58.30724Z"/><polygon class="cls-15" points="75.531 64.728 75.531 64.728 75.532 64.728 75.531 64.728"/><path class="cls-15" d="M66.8369,41.68189l.11987-.15975V39.96747l-3.84065-.48294-.02474.80933a1.992,1.992,0,0,0,.64676,1.50914c4.98758,4.684,5.38671,10.84874,13.72424,18.93693a1.42826,1.42826,0,0,1,.25612.365,5.53968,5.53968,0,0,0,3.08116-1.06779C72.79578,51.98,72.29721,46.34566,66.8369,41.68189Z"/><path class="cls-15" d="M77.53573,65.1194h0c.17994,0,.3579-.035.5371-.05243C77.89363,65.08444,77.71567,65.1194,77.53573,65.1194Z"/><path class="cls-15" d="M76.4608,64.99977c.031.00664.06154.01477.09256.02092C76.52234,65.015,76.49182,65.00617,76.4608,64.99977Z"/><path class="cls-15" d="M81.49528,63.45962a5.47318,5.47318,0,0,1-.47642.39531,5.38461,5.38461,0,0,0,.47642-.39531,1.54658,1.54658,0,0,0,.31482-.46645A1.54955,1.54955,0,0,1,81.49528,63.45962Z"/><path class="cls-10" d="M64.57715,87.99707a4.40448,4.40448,0,0,1-4.39942-4.39941V59.96a1,1,0,1,1,2,0v23.6377a2.40187,2.40187,0,0,0,4.79981.13476c.52148-9.54883,1.07519-21.47851.9209-23.70361a1.00052,1.00052,0,0,1,1.69531-.78613,39.78465,39.78465,0,0,0,5.39648,4.105,4.6474,4.6474,0,0,0,5.791-.58887A.85756.85756,0,0,0,81,62.13232a1.08641,1.08641,0,0,0-.19922-.67334,51.52176,51.52176,0,0,1-9.03906-11.75c-1.65625-2.75927-3.08692-5.14209-5.57422-7.2666a19.90657,19.90657,0,0,0-2.62793-1.90429,1.00028,1.00028,0,0,1,1.03516-1.71192,21.9778,21.9778,0,0,1,2.88965,2.09424c2.7373,2.3374,4.24511,4.8501,5.99218,7.75928A49.78519,49.78519,0,0,0,82.19141,60.022,2.96888,2.96888,0,0,1,83,62.12793a2.80471,2.80471,0,0,1-.80762,2.04785,6.48062,6.48062,0,0,1-4.65625,1.94336,6.6199,6.6199,0,0,1-3.65039-1.10449c-1.59961-1.06641-2.91406-2.00977-3.96972-2.84863-.083,5.71484-.78028,18.72168-.94141,21.666A4.37608,4.37608,0,0,1,64.57715,87.99707Z"/><path class="cls-10" d="M53.29785,70.61914H50.53906a5.83751,5.83751,0,0,1-5.7207-4.66309,5.90968,5.90968,0,0,1-.11914-1.15673v-6.939a1,1,0,0,1,2,0v6.939a3.95043,3.95043,0,0,0,.08008.76611,3.83213,3.83213,0,0,0,3.75976,3.05371h2.75879a1,1,0,0,1,0,2Z"/><path class="cls-10" d="M61.11719,74.47852H58.27734a5.84862,5.84862,0,0,1-5.71972-4.70508,5.54674,5.54674,0,0,1-.09961-1.11426V59a1,1,0,0,1,2,0v9.65918a3.72127,3.72127,0,0,0,.06054.72461,3.84534,3.84534,0,0,0,3.75879,3.09473h2.83985a1,1,0,0,1,0,2Z"/><path class="cls-15" d="M43.03275,41.982a25.43547,25.43547,0,0,1,1.37967-3.2595H40.38075a25.26243,25.26243,0,0,0-1.38089,3.2595,1.49923,1.49923,0,0,0-.09994.32A16.84622,16.84622,0,0,0,38,47.42133c0,1.56477.0176,2.9848.05439,4.28618-.03679-1.30138-.05427-2.72141-.05427-4.28618,0-.225.02314-.44725.03508-.671a56.2951,56.2951,0,0,0,.92465,10.19005c.55027,2.55576,1.82987,4.36323,3.98317,4.73934a68.94243,68.94243,0,0,1-.91013-13.25016c0-.03446.00505-.06843.00542-.10289-.00136-.30449-.00542-.58928-.00542-.90534a16.84622,16.84622,0,0,1,.89992-5.11939A1.49923,1.49923,0,0,1,43.03275,41.982Z"/><path class="cls-10" d="M66.957,42.522a.99974.99974,0,0,1-1-1V37.76221A5.6873,5.6873,0,0,0,64.29,33.71.99989.99989,0,0,1,65.7041,32.2959,7.6727,7.6727,0,0,1,67.957,37.76221V41.522A.99973.99973,0,0,1,66.957,42.522Z"/><path class="cls-10" d="M39,42.98242a1.00134,1.00134,0,0,1-.94629-1.32373,25.92225,25.92225,0,0,1,1.85059-4.17236,7.66124,7.66124,0,0,1,2.248-5.19043A.99989.99989,0,0,1,43.56641,33.71a5.68727,5.68727,0,0,0-1.667,4.05225,1.00681,1.00681,0,0,1-.14257.51513,23.41327,23.41327,0,0,0-1.81055,4.02784A1.00028,1.00028,0,0,1,39,42.98242Z"/><path class="cls-10" d="M45.69922,66.75977H43.7998c-2.97265,0-5.03808-1.99219-5.81738-5.60938A68.18319,68.18319,0,0,1,37,47.42139a17.77838,17.77838,0,0,1,.94824-5.42774.99983.99983,0,1,1,1.90235.61621A15.79588,15.79588,0,0,0,39,47.42139a66.50374,66.50374,0,0,0,.93945,13.31787c.57422,2.66455,1.873,4.02051,3.86035,4.02051h1.89942a1,1,0,0,1,0,2Z"/><path class="cls-10" d="M68.89648,60.96a.99974.99974,0,0,1-1-1V57.06055a1,1,0,0,1,2,0V59.96A.99973.99973,0,0,1,68.89648,60.96Z"/><path class="cls-10" d="M38.68066,43.98193A1.00013,1.00013,0,0,1,37.71,42.7373c.0625-.248.14258-.47753.22363-.70507a2.77983,2.77983,0,0,1,.1377-.42188A5.54372,5.54372,0,0,1,43.419,37.72217h.56054a1,1,0,0,1,0,2H43.419a3.594,3.594,0,0,0-3.49122,2.63232.64307.64307,0,0,0-.043.1167,1.42414,1.42414,0,0,1-.044.16846,6.1058,6.1058,0,0,0-.19141.58691A1.0002,1.0002,0,0,1,38.68066,43.98193Z"/><rect class="cls-4" height="7" width="28" x="40" y="28"/><rect class="cls-9" height="7" width="4" x="64" y="28"/><path class="cls-10" d="M68,36H40a.99974.99974,0,0,1-1-1V28a1,1,0,0,1,2,0v6H67V28a1,1,0,0,1,2,0v7A.99974.99974,0,0,1,68,36Z"/><path class="cls-10" d="M44,32.02344a.99974.99974,0,0,1-1-1,1.0098,1.0098,0,0,1,1-1.01172A.98981.98981,0,0,1,45,31v.02344A.99974.99974,0,0,1,44,32.02344Z"/><rect class="cls-19" height="22" width="30" x="39" y="6"/><rect class="cls-15" height="22" width="4" x="39" y="6"/><rect class="cls-20" height="22" width="4" x="65" y="6"/><path class="cls-10" d="M69,29H39a.99974.99974,0,0,1-1-1V6a1,1,0,0,1,2,0V27H68V6a1,1,0,0,1,2,0V28A.99974.99974,0,0,1,69,29Z"/></svg>